<svg width="32" height="32" viewBox="0 0 32 32" fill="none" xmlns="http://www.w3.org/2000/svg">
<path fill-rule="evenodd" clip-rule="evenodd" d="M2.66663 16.0078C2.66663 8.64842 8.65118 2.66675 16 2.66675C23.3487 2.66675 29.3333 8.64842 29.3333 16.0078C29.3333 23.3517 23.3487 29.3334 16 29.3334C8.65118 29.3334 2.66663 23.3517 2.66663 16.0078ZM20.8906 17.3572C21.0321 17.2157 21.2123 16.997 21.2509 16.9456C21.4568 16.6754 21.5598 16.341 21.5598 16.0078C21.5598 15.6335 21.444 15.2861 21.2252 15.0031C21.2073 14.9852 21.1721 14.947 21.1264 14.8972C21.0408 14.804 20.9179 14.6703 20.8005 14.5529C19.7451 13.4209 16.9909 11.5685 15.5495 11.0025C15.3307 10.9137 14.7773 10.7195 14.4813 10.7066C14.1982 10.7066 13.9279 10.7709 13.6705 10.8996C13.3487 11.0797 13.0913 11.3627 12.9498 11.6971C12.8597 11.9287 12.7181 12.6233 12.7181 12.6362C12.5765 13.3952 12.4993 14.6301 12.4993 15.9936C12.4993 17.2942 12.5765 18.4764 12.6924 19.2482C12.6956 19.2514 12.7066 19.3066 12.7238 19.3923C12.7761 19.653 12.885 20.1962 13.0012 20.4188C13.2844 20.9591 13.8378 21.2935 14.4298 21.2935H14.4813C14.8674 21.2807 15.6782 20.9462 15.6782 20.9333C17.0424 20.3673 19.7323 18.605 20.8133 17.4344L20.8906 17.3572Z" fill="white"/>
</svg>
