<svg width="174" height="213" viewBox="0 0 174 213" fill="none" xmlns="http://www.w3.org/2000/svg">
<g clip-path="url(#clip0_3_1775)">
<g clip-path="url(#clip1_3_1775)">
<path d="M97.6255 -8.67093L100.951 -7.92754C109.828 -5.9497 119.046 -3.89685 128.162 -1.29838L131.576 6.88576L137.674 21.6377L133.638 24.5908C129.016 27.9122 124.666 31.0358 120.289 34.2549C119.243 34.9813 117.982 35.3323 116.711 35.2506C116.451 35.2506 116.171 35.2506 115.864 35.2506C110.401 34.9574 103.034 33.2046 94.0133 30.1014C90.4011 28.8465 89.6773 27.6598 87.2737 23.7383L86.6933 22.8039C85.2183 20.4101 80.4931 11.5916 79.0113 7.69736L87.4717 0.242968L97.6255 -8.67093ZM97.0588 -10.8943L76.6214 7.04945C77.4681 10.3981 83.4498 21.3717 84.9589 23.8474C87.8882 28.5942 88.7281 30.4015 93.351 32.0043C99.9745 34.3026 108.708 36.8943 115.755 37.2694C116.076 37.2694 116.397 37.2694 116.711 37.2694C118.416 37.3486 120.098 36.8565 121.491 35.8713C127.554 31.4177 133.679 27.0392 140.153 22.3606L129.678 -2.98977C118.746 -6.18841 107.984 -8.44586 97.0588 -10.8943Z" fill="#FF3C41"/>
<path d="M68.4888 -58.7988L89.9982 -45.5951C91.1112 -35.0853 91.7395 -24.6709 92.2379 -14.9045L73.3984 0.822655C72.9379 0.633953 72.4947 0.405762 72.0737 0.14064C67.0275 -3.46038 62.193 -6.91818 56.3957 -11.1057C55.03 -12.1151 54.1287 -13.5951 53.5961 -15.9207C51.4879 -24.641 51.0248 -33.6772 52.2304 -42.5669C57.2288 -47.8457 62.6232 -53.4246 68.4888 -58.7988ZM68.2498 -61.3495C61.8994 -55.607 56.0543 -49.5848 50.2911 -43.5081C48.9393 -34.1618 49.3842 -24.6437 51.6022 -15.4638C52.1553 -13.0495 53.1386 -10.9284 55.1939 -9.44162C60.4199 -5.67692 65.655 -1.92585 70.8992 1.81157C71.8076 2.34913 72.7521 2.82312 73.7262 3.23016L94.3342 -14.0043C93.7743 -25.0256 93.1256 -35.8287 91.9306 -46.8091L68.2498 -61.3495Z" fill="#FF3C41"/>
<path d="M177.265 -33.0324L182.803 -15.6138L184.257 -11.017C181.317 -1.21993 175.846 7.6314 168.395 14.6471L167.774 14.7562C160.146 16.1202 152.915 17.4501 145.506 18.2822L136.247 -4.06734L152.956 -31.2182L170.962 -32.5823L177.265 -33.0528M178.706 -35.1944L151.734 -33.1483L133.953 -4.25148L144.195 20.4851C152.621 19.6189 160.884 18.0844 169.351 16.5499C177.427 9.07416 183.31 -0.458744 186.367 -11.0239C183.905 -18.8306 181.351 -26.8875 178.706 -35.1944Z" fill="#FF3C41"/>
<path d="M161.15 23.0153C153.584 22.6334 143.881 25.1841 138.534 29.0239L129.398 35.5916C136.95 36.9284 155.599 29.3581 161.15 23.0153Z" fill="#FF3C41"/>
<path d="M79.2298 22.9403C77.0174 18.3504 74.8596 13.7332 72.5312 9.19777C71.864 8.09104 70.9845 7.12686 69.9432 6.36061C66.1534 3.22335 61.5989 1.19777 57.7614 -2.81927C58.0345 4.19863 68.6117 17.075 79.2298 22.9403Z" fill="#FF3C41"/>
<mask id="mask0_3_1775" style="mask-type:luminance" maskUnits="userSpaceOnUse" x="-34" y="-8" width="210" height="215">
<path d="M-30.0722 71.3154C-23.8584 68.2054 -9.53244 110.504 25.2924 143.609C60.8 177.402 33.4864 204.076 33.4864 204.076L97.366 206.804L175.893 113.416L169.829 68.7783L39.0243 -7.13641L-13.7592 27.4689L-33.145 78.7016L-30.0722 71.3154Z" fill="white"/>
</mask>
<g mask="url(#mask0_3_1775)">
<path d="M35.453 40.8704H35.9037L53.0634 42.4254L57.6385 42.821L60.3698 61.4672L61.2917 67.7076C57.3995 71.1176 53.8282 74.7937 50.3662 78.3401C46.556 82.2344 42.9506 85.9241 39.0379 89.2523L14.6333 85.0648C13.9045 79.7166 13.4804 74.3314 13.3632 68.9352C13.2949 67.0938 13.2129 65.191 13.1105 63.3222C13.0627 62.347 13.6227 61.3921 14.2713 60.2805C14.3601 60.1372 14.4421 59.9872 14.5308 59.8372C18.7644 52.4919 24.9988 47.254 33.0563 41.6411C33.7544 41.1393 34.5929 40.8697 35.453 40.8704ZM35.453 38.8244C34.1768 38.8281 32.9334 39.2285 31.8954 39.9702C24.4388 45.1603 17.3988 50.78 12.7759 58.8278C11.9429 60.2668 10.9937 61.6786 11.0893 63.4382C11.5058 71.1381 11.4785 78.8858 12.8715 86.8448L39.6457 91.4348C47.9148 84.5669 54.8935 75.9463 63.545 68.5124C62.1793 59.4348 60.8615 50.364 59.448 40.925C51.4861 40.243 43.811 39.5609 36.129 38.8789C35.9174 38.8789 35.7057 38.8789 35.5008 38.8789L35.453 38.8244Z" fill="#FF3C41"/>
<path d="M123.505 77.1875L126.701 81.0136C130.333 85.3649 133.761 89.4774 137.278 93.6104C138.166 94.6607 138.528 95.8747 138.562 97.9548C138.61 104.763 137.69 111.544 135.83 118.095C134.731 122.146 132.921 123.919 128.019 127.963C125.97 129.648 117.428 134.872 113.604 136.618L106.905 129.996L95.9799 119.186C96.1506 118.061 96.3213 116.942 96.4852 115.824C97.8508 106.814 99.2507 97.5047 101.217 88.243L113.7 82.0503L123.498 77.1875M124.038 74.6368L99.4555 86.8517C97.0451 97.9684 95.5155 108.853 93.8289 119.909L113.181 139.005C116.445 137.934 127.131 131.373 129.378 129.525C134.349 125.433 136.581 123.332 137.865 118.613C139.756 111.873 140.689 104.9 140.638 97.9002C140.638 95.8201 140.289 93.9378 138.869 92.2668C133.994 86.5379 129.193 80.7408 124.072 74.6164L124.038 74.6368Z" fill="#FF3C41"/>
<path d="M90.1142 124.99L98.6634 133.856L107.158 142.668C107 143.137 106.803 143.594 106.571 144.032C103.341 149.31 100.179 154.371 96.4305 160.441C95.5155 161.9 94.0952 162.862 91.8077 163.558C84.7596 165.781 77.4163 166.931 70.0251 166.968C68.4546 166.968 66.8636 166.913 65.293 166.804C59.6664 162.159 53.7462 157.16 47.9489 151.704L59.6391 129.355C70.0593 127.52 80.4111 126.17 90.1142 124.99ZM90.8859 122.835C79.9195 124.158 69.1852 125.563 58.2871 127.52L45.4224 152.127C51.568 158.047 58.014 163.455 64.4941 168.775C66.3446 168.925 68.1883 168.993 70.0251 168.993C77.6183 168.956 85.1631 167.784 92.4086 165.515C94.778 164.792 96.8266 163.673 98.1649 161.518C101.565 156.062 104.95 150.588 108.319 145.095C108.79 144.153 109.198 143.18 109.541 142.183L90.8859 122.835Z" fill="#FF3C41"/>
<path d="M12.3116 92.2736C17.7197 92.4851 22.9229 93.5081 27.9622 94.497C31.4652 95.179 35.0774 95.902 38.6623 96.3112L47.0544 113.027L52.9063 124.69C49.7038 132.833 42.5409 145.9 39.5295 149.113L16.6066 143.172C10.7327 135.989 6.25807 127.77 3.41417 118.94C2.91166 117.535 2.70741 116.04 2.81438 114.551C2.92135 113.062 3.33722 111.612 4.03555 110.292C5.7349 106.996 7.1821 103.576 8.36476 100.062C9.29115 97.2933 10.621 94.6758 12.3116 92.2941M12.0453 91.7417C10.2418 94.2302 8.82808 96.9783 7.85263 99.8917C6.67903 103.378 5.24325 106.77 3.55757 110.04C2.82229 111.42 2.38195 112.938 2.26441 114.497C2.14687 116.056 2.35469 117.623 2.87473 119.097C5.75214 128.053 10.3002 136.383 16.2789 143.65L39.6729 149.733C42.6365 146.841 50.2023 133.106 53.4799 124.683L38.9969 95.8269C30.12 94.8585 21.4889 92.0554 12.0248 91.7349L12.0453 91.7417Z" fill="#FF3C41"/>
<path d="M87.6083 33.0682C97.5945 35.3015 106.815 40.1239 114.341 47.0494L114.519 47.6905C116.431 55.1927 118.247 62.3061 119.592 69.6309L106.154 76.3146L97.9123 80.4067L69.6086 65.6275L66.1057 41.5524L87.6083 33.0682ZM87.4512 30.9335L63.8455 40.2225C65.1633 49.3001 66.4334 58.0094 67.7308 66.9574L97.8713 82.6846L121.859 70.7494C120.405 62.4152 118.302 54.2856 116.178 45.9582C108.145 38.4435 98.2136 33.2564 87.4512 30.954V30.9335Z" fill="#FF3C41"/>
<path d="M89.2539 118.122C91.1659 107.68 93.5558 97.5388 94.5459 87.0085L65.9623 72.0861L43.2988 94.1765L57.5292 122.937C68.3522 121.662 78.6836 120.052 89.2539 118.122Z" fill="#FF3C41"/>
<path d="M123.205 53.6854C123.355 61.2489 126.619 70.7357 130.784 75.7963C133.099 78.5925 135.427 81.3819 137.981 84.4442C138.787 76.8329 129.931 58.7732 123.205 53.6854Z" fill="#FF3C41"/>
<path d="M24.9851 151.547C36.129 152.27 45.3064 157.044 52.9815 166.101C42.5298 163.795 32.8726 158.774 24.9851 151.547ZM23.517 150.934C32.0409 159.128 42.7502 164.692 54.3608 166.961C46.0507 156.546 35.9924 151.356 23.517 150.934Z" fill="#FF3C41"/>
<path d="M76.6282 29.5422C68.4341 27.3325 51.6636 29.7673 43.6539 34.3163C54.1628 38.006 68.7687 35.8781 76.6282 29.5422Z" fill="#FF3C41"/>
<path d="M6.04311 72.468C8.5901 84.1441 6.88301 93.9514 0.730626 103.104C-0.0751242 93.0375 1.63197 83.2234 6.04311 72.468ZM6.19334 70.7221C1.62515 81.3274 -0.955989 92.26 0.327748 104.625C8.15308 93.7604 9.12272 82.5618 6.19334 70.7221Z" fill="#FF3C41"/>
<path d="M128.859 135.309C124.434 137.839 119.982 140.308 115.605 142.94C114.545 143.682 113.642 144.625 112.948 145.716C110.08 149.713 108.367 154.398 104.631 158.497C111.603 157.733 123.717 146.303 128.859 135.309Z" fill="#FF3C41"/>
</g>
</g>
</g>
<defs>
<clipPath id="clip0_3_1775">
<rect width="174" height="213" fill="white"/>
</clipPath>
<clipPath id="clip1_3_1775">
<rect width="190" height="272" fill="white" transform="translate(0 -103)"/>
</clipPath>
</defs>
</svg>
