<svg width="352" height="147" viewBox="0 0 352 147" fill="none" xmlns="http://www.w3.org/2000/svg">
<g opacity="0.64" clip-path="url(#clip0_7_1446)">
<mask id="mask0_7_1446" style="mask-type:luminance" maskUnits="userSpaceOnUse" x="-296" y="-97" width="648" height="324">
<path d="M352 -97H-296V226.93H352V-97Z" fill="white"/>
</mask>
<g mask="url(#mask0_7_1446)">
<g style="mix-blend-mode:screen">
<path d="M196.631 149.608C194.267 151.047 191.891 152.463 189.503 153.855C186.863 151.455 184.201 149.084 181.515 146.743C181.095 142.985 180.603 139.241 180.039 135.509C182.295 134.039 184.544 132.551 186.785 131.046C189.68 133.34 192.549 135.663 195.393 138.014C195.873 141.863 196.286 145.728 196.631 149.608Z" fill="url(#paint0_radial_7_1446)"/>
<path d="M213.983 152.901C211.555 154.398 209.114 155.875 206.661 157.331C204.021 154.865 201.369 152.422 198.705 150.003C198.367 146.114 197.965 142.233 197.499 138.36C199.839 136.827 202.169 135.279 204.49 133.717C207.356 136.088 210.199 138.487 213.019 140.915C213.407 144.906 213.729 148.901 213.983 152.901Z" fill="url(#paint1_radial_7_1446)"/>
<path d="M203.068 131.144C200.759 132.713 198.445 134.273 196.124 135.823C193.244 133.476 190.345 131.162 187.426 128.88C186.692 125.072 185.889 121.279 185.018 117.503C187.233 115.912 189.441 114.311 191.642 112.701C194.793 114.897 197.913 117.13 201.002 119.399C201.755 123.299 202.444 127.213 203.068 131.144Z" fill="url(#paint2_radial_7_1446)"/>
<path d="M221.029 133.793C218.629 135.412 216.229 137.025 213.829 138.63C210.982 136.211 208.112 133.82 205.218 131.457C204.606 127.507 203.931 123.571 203.194 119.648C205.513 117.992 207.825 116.332 210.132 114.666C213.235 116.948 216.31 119.267 219.358 121.624C219.973 125.674 220.53 129.73 221.029 133.793Z" fill="url(#paint3_radial_7_1446)"/>
<path d="M189.939 110.239C187.75 111.852 185.557 113.457 183.358 115.055C180.195 112.896 177.003 110.771 173.782 108.681C172.616 105.041 171.374 101.432 170.056 97.8545C172.195 96.2013 174.338 94.5564 176.486 92.92C179.891 94.9068 183.261 96.9475 186.638 98.9738C187.814 102.715 188.914 106.47 189.939 110.239Z" fill="url(#paint4_radial_7_1446)"/>
<path d="M208.508 112.115C206.211 113.794 203.911 115.459 201.607 117.11C198.487 114.85 195.337 112.632 192.157 110.455C191.144 106.657 190.064 102.881 188.917 99.1286C191.168 97.4202 193.42 95.7141 195.674 94.0105C199.04 96.0944 202.377 98.2288 205.711 100.367C206.707 104.273 207.639 108.189 208.508 112.115Z" fill="url(#paint5_radial_7_1446)"/>
<path d="M231.566 156.187C229.053 157.744 226.533 159.29 224.006 160.823C221.385 158.291 218.745 155.783 216.086 153.297C215.834 149.28 215.524 145.271 215.157 141.268C217.576 139.675 219.99 138.069 222.397 136.449C225.236 138.894 228.054 141.362 230.85 143.853C231.138 147.963 231.376 152.074 231.566 156.187Z" fill="url(#paint6_radial_7_1446)"/>
<path d="M239.363 136.416C236.829 138.115 234.29 139.806 231.746 141.488C228.905 139.019 226.069 136.55 223.196 134.113C222.716 130.034 222.175 125.962 221.572 121.897C223.994 120.184 226.413 118.466 228.83 116.743C231.899 119.119 234.962 121.505 238.017 123.902C238.511 128.07 238.96 132.241 239.363 136.416Z" fill="url(#paint7_radial_7_1446)"/>
<path d="M227.282 114.105C224.882 115.828 222.472 117.551 220.053 119.273C216.974 116.929 213.87 114.622 210.74 112.352C209.888 108.403 208.975 104.469 208 100.55L215.089 95.2594C218.415 97.4406 221.72 99.6541 225.003 101.9C225.824 105.96 226.584 110.028 227.282 114.105Z" fill="url(#paint8_radial_7_1446)"/>
<path d="M249.847 159.264C247.207 160.901 244.567 162.526 241.927 164.141C239.217 161.598 236.489 159.078 233.744 156.583C233.559 152.456 233.326 148.332 233.045 144.212C235.601 142.533 238.151 140.853 240.695 139.173C243.575 141.65 246.447 144.146 249.31 146.663C249.536 150.846 249.715 155.046 249.847 159.264Z" fill="url(#paint9_radial_7_1446)"/>
<path d="M268.279 162.302C265.6 163.994 262.915 165.673 260.222 167.341C257.51 164.759 254.786 162.191 252.05 159.635C251.925 155.412 251.757 151.191 251.546 146.973C254.167 145.253 256.781 143.524 259.39 141.787C262.27 144.313 265.125 146.858 267.955 149.42C268.103 153.711 268.211 158.005 268.279 162.302Z" fill="url(#paint10_radial_7_1446)"/>
<path d="M258.098 138.997C255.494 140.739 252.887 142.474 250.279 144.202C247.399 141.685 244.507 139.193 241.603 136.726C241.211 132.537 240.773 128.352 240.289 124.172C242.835 122.401 245.378 120.624 247.917 118.842C250.984 121.265 254.029 123.713 257.05 126.184C257.441 130.453 257.791 134.724 258.098 138.997Z" fill="url(#paint11_radial_7_1446)"/>
<path d="M277.001 141.603C274.33 143.383 271.654 145.159 268.973 146.93C266.12 144.37 263.247 141.83 260.355 139.31C260.065 135.025 259.729 130.743 259.347 126.465C261.987 124.651 264.617 122.833 267.238 121.012C270.274 123.495 273.287 126.002 276.278 128.531C276.556 132.886 276.797 137.243 277.001 141.603Z" fill="url(#paint12_radial_7_1446)"/>
<path d="M246.43 116.131C243.898 117.916 241.365 119.699 238.831 121.48C235.756 119.079 232.66 116.714 229.561 114.35C228.877 110.254 228.139 106.175 227.347 102.112C229.826 100.303 232.303 98.4867 234.777 96.6631C238.072 98.9258 241.337 101.228 244.573 103.57C245.235 107.747 245.854 111.935 246.43 116.131Z" fill="url(#paint13_radial_7_1446)"/>
<path d="M265.82 118.233C263.204 120.069 260.579 121.891 257.947 123.7C254.901 121.234 251.835 118.794 248.749 116.38C248.187 112.165 247.6 107.958 246.949 103.761C249.555 101.896 252.16 100.027 254.764 98.1532C258.004 100.514 261.19 102.919 264.383 105.33C264.899 109.628 265.378 113.929 265.82 118.233Z" fill="url(#paint14_radial_7_1446)"/>
<path d="M286.866 165.3C284.137 167.035 281.402 168.759 278.661 170.472C275.952 167.859 273.231 165.257 270.5 162.666C270.44 158.347 270.34 154.04 270.201 149.744C272.892 147.986 275.575 146.216 278.251 144.436C281.1 147.003 283.935 149.586 286.758 152.185C286.827 156.554 286.863 160.926 286.866 165.3Z" fill="url(#paint15_radial_7_1446)"/>
<path d="M296.085 144.22C293.335 146.034 290.585 147.846 287.837 149.658C285.001 147.059 282.149 144.479 279.284 141.916C279.089 137.547 278.862 133.18 278.6 128.815C281.329 126.975 284.05 125.123 286.765 123.261C289.76 125.795 292.737 128.351 295.696 130.928C295.855 135.355 295.984 139.785 296.085 144.22Z" fill="url(#paint16_radial_7_1446)"/>
<path d="M285.411 120.422C282.704 122.293 279.986 124.15 277.257 125.993C274.245 123.471 271.213 120.971 268.16 118.492C267.73 114.173 267.265 109.854 266.763 105.535C269.499 103.616 272.235 101.703 274.971 99.7981C278.135 102.246 281.271 104.733 284.41 107.216C284.775 111.622 285.109 116.023 285.411 120.422Z" fill="url(#paint17_radial_7_1446)"/>
<path d="M315.341 146.825C312.524 148.678 309.7 150.523 306.871 152.361C304.053 149.738 301.225 147.129 298.385 144.533C298.297 140.091 298.177 135.652 298.025 131.216C300.853 129.349 303.67 127.469 306.478 125.576C309.435 128.153 312.374 130.748 315.295 133.361C315.333 137.85 315.349 142.338 315.341 146.825Z" fill="url(#paint18_radial_7_1446)"/>
<path d="M334.774 149.406C331.88 151.285 328.98 153.156 326.073 155.021C323.28 152.381 320.476 149.753 317.664 147.135C317.685 142.643 317.685 138.15 317.664 133.656C320.584 131.76 323.5 129.859 326.411 127.951C329.323 130.562 332.221 133.187 335.105 135.826C335.009 140.354 334.899 144.881 334.774 149.406Z" fill="url(#paint19_radial_7_1446)"/>
<path d="M305.215 122.689C302.404 124.582 299.588 126.468 296.765 128.347C293.789 125.775 290.789 123.223 287.765 120.691C287.477 116.279 287.161 111.871 286.815 107.468C289.695 105.514 292.55 103.574 295.415 101.623C298.519 104.142 301.586 106.705 304.664 109.253C304.877 113.731 305.061 118.209 305.215 122.689Z" fill="url(#paint20_radial_7_1446)"/>
<path d="M325.227 125.025C322.311 126.945 319.393 128.852 316.472 130.748C313.529 128.135 310.574 125.541 307.605 122.966C307.468 118.479 307.309 113.992 307.126 109.505L316.126 103.581C319.157 106.169 322.163 108.792 325.18 111.402C325.214 115.942 325.229 120.483 325.227 125.025Z" fill="url(#paint21_radial_7_1446)"/>
<path d="M352.076 135.474C350.24 133.767 348.402 132.067 346.561 130.373C343.544 132.293 340.526 134.213 337.507 136.132C337.387 140.662 337.257 145.194 337.118 149.726C339.902 152.366 342.679 155.005 345.448 157.645C347.659 156.248 349.868 154.846 352.076 153.437V135.474Z" fill="url(#paint22_radial_7_1446)"/>
<path d="M345.448 127.422C342.427 129.342 339.403 131.261 336.376 133.181C333.48 130.541 330.568 127.915 327.643 125.302C327.664 120.755 327.671 116.207 327.664 111.657L337.075 105.683C340.041 108.328 342.979 110.999 345.931 113.659C345.777 118.249 345.616 122.837 345.448 127.422Z" fill="url(#paint23_radial_7_1446)"/>
<path d="M352.076 111.726L348.433 113.943C348.258 118.536 348.076 123.126 347.889 127.714C349.291 128.995 350.686 130.279 352.076 131.565V111.726Z" fill="url(#paint24_radial_7_1446)"/>
<path d="M193.924 91.9589C191.671 93.6746 189.413 95.389 187.153 97.1022C183.793 95.0459 180.401 93.0339 176.979 91.0663C175.693 87.4671 174.339 83.8871 172.918 80.3263C175.097 78.6179 177.268 76.901 179.431 75.1758C183.071 76.9874 186.682 78.8494 190.263 80.7618C191.549 84.4714 192.77 88.2038 193.924 91.9589Z" fill="url(#paint25_radial_7_1446)"/>
<path d="M213.411 93.1071C211.052 94.8731 208.69 96.6416 206.326 98.4124C202.993 96.2529 199.633 94.1425 196.246 92.0813C195.106 88.3094 193.906 84.5578 192.646 80.8266C194.943 79.0486 197.235 77.2658 199.522 75.4781C203.122 77.4097 206.686 79.3893 210.214 81.4169C211.335 85.3016 212.401 89.1984 213.411 93.1071Z" fill="url(#paint26_radial_7_1446)"/>
<path d="M197.495 73.1854C195.218 74.9754 192.938 76.7583 190.655 78.5339C187.041 76.6407 183.401 74.8015 179.737 73.0163C178.22 69.5394 176.639 66.0962 174.995 62.6865C177.225 60.9133 179.449 59.1341 181.666 57.3489C185.557 58.9445 189.421 60.6002 193.258 62.3158C194.732 65.9198 196.144 69.543 197.495 73.1854Z" fill="url(#paint27_radial_7_1446)"/>
<path d="M217.943 73.5634C215.543 75.4158 213.134 77.261 210.715 79.099C207.146 77.0906 203.553 75.1314 199.936 73.2214C198.599 69.5502 197.205 65.903 195.753 62.2798C198.124 60.4274 200.492 58.5702 202.856 56.7083C206.696 58.4503 210.5 60.2499 214.268 62.1071C215.542 65.9127 216.767 69.7314 217.943 73.5634Z" fill="url(#paint28_radial_7_1446)"/>
<path d="M179.355 55.3405C177.142 57.1209 174.926 58.8989 172.706 60.6746C168.775 59.1269 164.815 57.644 160.826 56.2259C158.923 53.1522 156.948 50.1289 154.9 47.1559C157.06 45.4043 159.228 43.6479 161.402 41.8867C165.621 43.048 169.814 44.2885 173.98 45.6082C175.848 48.8187 177.639 52.0628 179.355 55.3405Z" fill="url(#paint29_radial_7_1446)"/>
<path d="M200.667 54.5451C198.308 56.4071 195.946 58.2643 193.582 60.1167C189.713 58.4371 185.818 56.809 181.897 55.2325C180.2 51.9213 178.439 48.6484 176.615 45.4139C178.948 43.5591 181.277 41.7019 183.603 39.8423C187.755 41.1788 191.877 42.5897 195.969 44.075C197.596 47.5398 199.162 51.0299 200.667 54.5451Z" fill="url(#paint30_radial_7_1446)"/>
<path d="M181.133 38.0103C178.81 39.8723 176.486 41.7282 174.16 43.5782C169.955 42.2921 165.729 41.0924 161.481 39.979C159.407 37.1308 157.265 34.3403 155.055 31.6072C157.357 29.7644 159.658 27.9241 161.96 26.0861C166.445 26.9235 170.912 27.8533 175.359 28.8755C177.353 31.8772 179.278 34.9221 181.133 38.0103Z" fill="url(#paint31_radial_7_1446)"/>
<path d="M203.77 36.0415C201.282 38.0018 198.789 39.955 196.293 41.901C192.165 40.4421 188.012 39.0624 183.834 37.7619C182.002 34.6306 180.108 31.5425 178.149 28.4975C180.631 26.5323 183.115 24.5695 185.601 22.6092C190.015 23.6529 194.402 24.7843 198.763 26.0032C200.496 29.3217 202.165 32.6678 203.77 36.0415Z" fill="url(#paint32_radial_7_1446)"/>
<path d="M159.195 24.6537C156.896 26.4893 154.597 28.3272 152.297 30.1676C147.737 29.3806 143.157 28.6836 138.556 28.0765C136.115 25.7658 133.581 23.5583 130.953 21.4539C133.238 19.6471 135.518 17.8475 137.793 16.0551C142.634 16.3263 147.466 16.6862 152.29 17.1349C154.699 19.5572 156.967 22.0838 159.195 24.6537Z" fill="url(#paint33_radial_7_1446)"/>
<path d="M182.98 20.9788C180.496 22.9368 178.014 24.9007 175.532 26.8707C171.046 25.8869 166.546 24.9967 162.032 24.2001C159.832 21.5906 157.6 19.0208 155.246 16.5517L162.698 10.667C167.457 11.1469 172.202 11.7264 176.932 12.4054C179.018 15.22 181.034 18.0778 182.98 20.9788Z" fill="url(#paint34_radial_7_1446)"/>
<path d="M159.782 9.50092L152.326 15.382C147.464 14.9717 142.597 14.6562 137.725 14.4354C135.169 12.4103 132.529 10.4907 129.805 8.67668L137.289 2.85673C142.416 2.70316 147.538 2.6504 152.658 2.69839C155.127 4.87951 157.502 7.14703 159.782 9.50092Z" fill="url(#paint35_radial_7_1446)"/>
<path d="M185.23 4.10207C182.533 6.21362 179.84 8.32876 177.152 10.4475C172.383 9.81164 167.604 9.27652 162.813 8.84222C160.564 6.44274 158.228 4.13088 155.804 1.90656L163.951 -4.48926C168.991 -4.40528 174.02 -4.21573 179.038 -3.9206C181.202 -1.30756 183.221 1.38107 185.23 4.10207Z" fill="url(#paint36_radial_7_1446)"/>
<path d="M134.074 2.23764L126.583 8.04318C121.319 8.26634 116.066 8.58427 110.822 8.99699C107.858 7.63648 104.836 6.42114 101.757 5.35098C104.282 3.46499 106.802 1.57419 109.317 -0.321394C114.837 -1.14442 120.357 -1.87504 125.877 -2.51331C128.663 -1.00523 131.371 0.564008 134.074 2.23764Z" fill="url(#paint37_radial_7_1446)"/>
<path d="M160.901 -5.39989L152.762 1.00313C147.599 1.00313 142.439 1.10751 137.282 1.31626C134.621 -0.407763 131.95 -2.02741 129.189 -3.58947C131.944 -5.71781 134.696 -7.84975 137.444 -9.98529C142.851 -10.602 148.268 -11.1082 153.694 -11.5042C156.149 -9.53898 158.522 -7.50543 160.901 -5.39989Z" fill="url(#paint38_radial_7_1446)"/>
<path d="M104.677 -10.3092C101.881 -8.20969 99.0775 -6.12094 96.2671 -4.04299C90.2815 -2.65849 84.3127 -1.19959 78.3607 0.333673C74.9191 0.0421371 71.4919 -0.137831 68.0395 -0.213414C70.9051 -2.21218 73.7611 -4.22295 76.6075 -6.24571C82.8355 -8.22528 89.0755 -10.1449 95.3275 -12.0045C98.4739 -11.5845 101.59 -11.0195 104.677 -10.3092Z" fill="url(#paint39_radial_7_1446)"/>
<path d="M71.6395 -12.5228C68.4427 -10.2313 65.2291 -7.96381 61.9987 -5.7203C55.2547 -3.20564 48.5167 -0.676607 41.7847 1.86684C37.9447 2.5003 34.1263 3.20218 30.3295 3.97242C33.6559 1.90407 36.9583 -0.19668 40.2367 -2.32982C47.2759 -5.30997 54.3055 -8.30932 61.3255 -11.3279C64.7563 -11.8102 68.1871 -12.2133 71.6395 -12.5228Z" fill="url(#paint40_radial_7_1446)"/>
<path d="M35.4019 -5.51868C31.6963 -3.0928 27.9667 -0.713737 24.2131 1.61856C16.6531 4.92984 9.05108 8.13673 1.40708 11.2393C-2.79052 12.4222 -6.98453 13.6219 -11.1749 14.8385C-7.27733 12.8781 -3.41092 10.8578 0.424284 8.77741C8.41628 5.31256 16.3363 1.68932 24.1843 -2.09226C27.8995 -3.2848 31.6387 -4.42691 35.4019 -5.51868Z" fill="url(#paint41_radial_7_1446)"/>
<path d="M233.15 94.4101C230.685 96.2361 228.216 98.0549 225.741 99.8665C222.439 97.6277 219.114 95.4238 215.766 93.2547C214.772 89.3244 213.724 85.4096 212.623 81.5104C215.047 79.67 217.464 77.8273 219.873 75.9821C223.416 78.0312 226.932 80.1248 230.421 82.2627C231.374 86.301 232.284 90.3502 233.15 94.4101Z" fill="url(#paint42_radial_7_1446)"/>
<path d="M238.773 74.1104C236.198 76.03 233.62 77.9496 231.04 79.8691C227.524 77.7456 223.982 75.6688 220.413 73.6389C219.261 69.7805 218.061 65.9414 216.813 62.1214C219.328 60.2018 221.842 58.275 224.355 56.3411C228.142 58.2379 231.915 60.1922 235.663 62.1286C236.747 66.1045 237.784 70.0985 238.773 74.1104Z" fill="url(#paint43_radial_7_1446)"/>
<path d="M222.274 54.0016C219.769 55.938 217.258 57.8672 214.743 59.7891C210.934 57.9535 207.101 56.1791 203.245 54.4659C201.761 50.9219 200.222 47.403 198.626 43.9094C201.127 41.9658 203.621 40.015 206.11 38.0571C210.19 39.5735 214.24 41.1596 218.26 42.8152C219.65 46.5272 220.988 50.256 222.274 54.0016Z" fill="url(#paint44_radial_7_1446)"/>
<path d="M226.749 34.3714C224.085 36.4158 221.42 38.4554 218.753 40.4901C214.697 38.8585 210.617 37.2988 206.513 35.8111C204.929 32.4039 203.291 29.0218 201.599 25.665C204.266 23.5846 206.938 21.5078 209.617 19.4347C213.951 20.6872 218.257 22.0261 222.533 23.4514C223.981 27.0818 225.386 30.7218 226.749 34.3714Z" fill="url(#paint45_radial_7_1446)"/>
<path d="M207.144 17.5918C204.465 19.6722 201.79 21.7549 199.119 23.8401C194.72 22.6571 190.3 21.5618 185.86 20.554C183.94 17.6098 181.958 14.7112 179.913 11.8583C182.601 9.74193 185.292 7.62919 187.984 5.52005C192.66 6.23989 197.317 7.05333 201.956 7.96033C203.737 11.1468 205.466 14.3573 207.144 17.5918Z" fill="url(#paint46_radial_7_1446)"/>
<path d="M211.107 -0.990913C208.203 1.27659 205.295 3.53689 202.384 5.79C197.704 4.91659 193.013 4.14398 188.312 3.47213C186.343 0.704327 184.352 -2.03471 182.235 -4.70173C185.18 -7.01243 188.125 -9.3291 191.069 -11.6518C196.021 -11.3039 200.956 -10.8444 205.876 -10.2733C207.667 -7.20198 209.41 -4.10784 211.107 -0.990913Z" fill="url(#paint47_radial_7_1446)"/>
<path d="M253.202 95.8317C250.603 97.7153 247.998 99.5893 245.386 101.454C242.13 99.1166 238.844 96.8227 235.53 94.572C234.687 90.4929 233.796 86.4269 232.855 82.3742C235.447 80.4666 238.033 78.5543 240.613 76.6371C244.141 78.7774 247.638 80.9681 251.103 83.2092C251.859 87.4083 252.559 91.6158 253.202 95.8317Z" fill="url(#paint48_radial_7_1446)"/>
<path d="M273.527 97.4118C270.791 99.3313 268.051 101.251 265.305 103.171C262.108 100.745 258.887 98.3571 255.643 96.0081C255.014 91.7754 254.339 87.5499 253.619 83.3316C256.363 81.3688 259.101 79.4025 261.835 77.4325C265.281 79.6928 268.697 81.9975 272.084 84.3466C272.602 88.7016 273.083 93.0567 273.527 97.4118Z" fill="url(#paint49_radial_7_1446)"/>
<path d="M260.114 74.7835C257.38 76.7631 254.643 78.7366 251.902 80.7042C248.403 78.4751 244.876 76.3 241.322 74.1788C240.362 70.1405 239.354 66.1142 238.298 62.0999C241.046 60.0891 243.79 58.0699 246.531 56.0424C250.322 58.0111 254.055 60.0879 257.767 62.2006C258.595 66.3877 259.377 70.582 260.114 74.7835Z" fill="url(#paint50_radial_7_1446)"/>
<path d="M281.71 75.7049C278.816 77.7276 275.92 79.7468 273.024 81.7624C269.611 79.4229 266.168 77.129 262.695 74.8807C261.975 70.6552 261.223 66.4381 260.438 62.2294C263.361 60.1563 266.281 58.0783 269.197 55.9955C272.89 58.1191 276.526 60.3362 280.141 62.5929C280.695 66.96 281.218 71.3306 281.71 75.7049Z" fill="url(#paint51_radial_7_1446)"/>
<path d="M244.537 53.5949C241.796 55.6249 239.051 57.6512 236.303 59.674C232.505 57.752 228.718 55.8048 224.888 53.9512C223.625 50.1792 222.315 46.4228 220.957 42.682C223.628 40.6569 226.293 38.6233 228.952 36.5814C233.031 38.3018 237.135 39.9646 241.192 41.7391C242.354 45.6766 243.469 49.6286 244.537 53.5949Z" fill="url(#paint52_radial_7_1446)"/>
<path d="M267.361 53.3969C264.442 55.4844 261.519 57.5708 258.591 59.6559C254.847 57.5588 251.071 55.5192 247.262 53.5373C246.225 49.5469 245.145 45.5662 244.022 41.595C246.981 39.4355 249.935 37.2832 252.885 35.1381C256.924 36.9593 260.929 38.8525 264.898 40.8176C265.755 45.0095 266.576 49.2026 267.361 53.3969Z" fill="url(#paint53_radial_7_1446)"/>
<path d="M250.768 32.7879C247.812 34.9474 244.852 37.1069 241.891 39.2664C237.794 37.51 233.654 35.876 229.528 34.1916C228.196 30.5036 226.822 26.8312 225.406 23.1744C228.32 20.9716 231.236 18.7737 234.154 16.5806C238.58 17.9771 242.972 19.4635 247.33 21.04C248.518 24.9488 249.664 28.8647 250.768 32.7879Z" fill="url(#paint54_radial_7_1446)"/>
<path d="M275.288 31.5425L265.802 38.2406C261.799 36.2898 257.763 34.4146 253.695 32.615C252.627 28.6559 251.519 24.7075 250.372 20.77C253.593 18.4473 256.813 16.121 260.031 13.7911C264.337 15.4204 268.607 17.1372 272.843 18.9416C273.691 23.1359 274.505 27.3362 275.288 31.5425Z" fill="url(#paint55_radial_7_1446)"/>
<path d="M231.735 14.5505C228.855 16.7412 225.968 18.9355 223.073 21.1335C218.753 19.737 214.418 18.4292 210.067 17.2103C208.425 13.9278 206.732 10.6753 204.987 7.45282C207.893 5.19971 210.797 2.94779 213.699 0.697083C218.293 1.65687 222.861 2.71868 227.404 3.88243C228.877 7.42766 230.291 10.9945 231.735 14.5505Z" fill="url(#paint56_radial_7_1446)"/>
<path d="M257.803 11.5128C254.582 13.8595 251.355 16.2002 248.122 18.5349C243.723 16.9872 239.297 15.5295 234.845 14.1618C233.437 10.5626 231.987 6.98138 230.497 3.41815C233.79 0.98268 237.079 -1.45998 240.364 -3.90985C245.073 -2.7701 249.753 -1.52958 254.404 -0.188272C255.573 3.70368 256.706 7.60404 257.803 11.5128Z" fill="url(#paint57_radial_7_1446)"/>
<path d="M237.83 -5.82468C234.568 -3.38081 231.292 -0.954897 228.045 1.50337C223.463 0.375614 218.863 -0.650181 214.243 -1.57398C212.587 -4.74849 210.881 -7.8942 209.127 -11.0111C212.321 -13.4874 215.507 -15.9756 218.685 -18.4759C223.61 -17.828 228.509 -17.0362 233.42 -16.3164C234.932 -12.8323 236.402 -9.33511 237.83 -5.82468Z" fill="url(#paint58_radial_7_1446)"/>
<path d="M294.084 99.1573C291.204 101.12 288.324 103.078 285.444 105.031C282.324 102.526 279.169 100.055 275.979 97.6169C275.557 93.2426 275.101 88.8732 274.611 84.5085C277.505 82.505 280.399 80.4942 283.291 78.4763C286.651 80.8517 289.984 83.2644 293.291 85.7143C293.587 90.1893 293.851 94.6703 294.084 99.1573Z" fill="url(#paint59_radial_7_1446)"/>
<path d="M303.562 76.889C300.51 78.943 297.454 80.9957 294.397 83.0473C291.068 80.6046 287.708 78.2051 284.317 75.8488C283.856 71.453 283.364 67.062 282.841 62.6757L292.132 56.3015C295.732 58.5726 299.264 60.9301 302.778 63.32C303.066 67.8382 303.327 72.3612 303.562 76.889Z" fill="url(#paint60_radial_7_1446)"/>
<path d="M290.462 53.5445C287.359 55.6824 284.254 57.8179 281.149 59.9511C277.505 57.7088 273.841 55.5024 270.118 53.3933C269.369 49.1702 268.583 44.9567 267.76 40.7529C270.916 38.5357 274.072 36.315 277.228 34.0907C281.157 36.1063 285.047 38.1866 288.899 40.3318C289.451 44.7348 289.972 49.139 290.462 53.5445Z" fill="url(#paint61_radial_7_1446)"/>
<path d="M300.128 30.7722C296.768 33.0637 293.397 35.3516 290.016 37.6359C286.128 35.5028 282.206 33.438 278.251 31.4417C277.509 27.2018 276.735 22.9679 275.929 18.74C279.378 16.3405 282.824 13.9339 286.268 11.52C290.456 13.3916 294.603 15.3412 298.71 17.3687C299.206 21.8222 299.679 26.29 300.128 30.7722Z" fill="url(#paint62_radial_7_1446)"/>
<path d="M284.241 8.99698C280.785 11.4229 277.328 13.8463 273.869 16.2674C269.595 14.4822 265.291 12.7869 260.956 11.1817C259.898 7.22975 258.807 3.28621 257.684 -0.648938C261.226 -3.19718 264.763 -5.75381 268.293 -8.31885C272.879 -6.89836 277.431 -5.37711 281.948 -3.75506C282.74 0.487213 283.504 4.73791 284.241 8.99698Z" fill="url(#paint63_radial_7_1446)"/>
<path d="M314.877 101.047C311.867 103.039 308.853 105.024 305.834 107.004C302.767 104.431 299.677 101.886 296.564 99.3661C296.355 94.8695 296.115 90.3765 295.844 85.8871C298.897 83.8451 301.947 81.8056 304.995 79.7684C308.271 82.2447 311.521 84.7557 314.744 87.3016C314.816 91.8822 314.86 96.464 314.877 101.047Z" fill="url(#paint64_radial_7_1446)"/>
<path d="M335.916 103.117C332.767 105.122 329.614 107.125 326.458 109.124C323.461 106.484 320.438 103.875 317.39 101.295C317.39 96.6955 317.378 92.0969 317.354 87.4995L326.98 81.3053C330.17 83.8751 333.335 86.4749 336.477 89.1047C336.302 93.7717 336.115 98.4423 335.916 103.117Z" fill="url(#paint65_radial_7_1446)"/>
<path d="M325.674 78.3431L316.022 84.5697C312.775 82.0263 309.501 79.5188 306.201 77.0473C305.997 72.5027 305.769 67.9581 305.517 63.4135L315.36 56.9349C318.837 59.3656 322.284 61.8383 325.699 64.3529C325.706 69.0199 325.698 73.6833 325.674 78.3431Z" fill="url(#paint66_radial_7_1446)"/>
<path d="M348.047 80.0815L337.903 86.3298C334.742 83.6903 331.556 81.0917 328.345 78.5338C328.4 73.8573 328.441 69.1783 328.467 64.4969C331.937 62.323 335.405 60.1467 338.871 57.968C342.243 60.5306 345.585 63.128 348.897 65.7602C348.621 70.54 348.338 75.3138 348.047 80.0815Z" fill="url(#paint67_radial_7_1446)"/>
<path d="M313.847 54.0664L303.976 60.5809C300.434 58.1983 296.873 55.848 293.252 53.5877C292.796 49.1534 292.316 44.724 291.812 40.2993C295.172 38.0318 298.532 35.7596 301.892 33.4825C305.703 35.6852 309.478 37.9479 313.217 40.2706C313.443 44.868 313.653 49.4666 313.847 54.0664Z" fill="url(#paint68_radial_7_1446)"/>
<path d="M337.525 54.995L327.085 61.5636C323.647 59.0442 320.187 56.5643 316.674 54.1564C316.52 49.535 316.345 44.9136 316.148 40.2922C319.721 37.9887 323.294 35.6816 326.865 33.3709C330.563 35.7536 334.221 38.1915 337.838 40.6845C337.744 45.4547 337.64 50.2249 337.525 54.995Z" fill="url(#paint69_radial_7_1446)"/>
<path d="M325.299 30.4771L314.542 37.4524C310.772 35.1393 306.968 32.8862 303.13 30.6931C302.722 26.194 302.291 21.695 301.838 17.196C305.524 14.7341 309.207 12.2675 312.886 9.79599C316.942 11.9051 320.96 14.0851 324.939 16.3358C325.076 21.0484 325.196 25.7622 325.299 30.4771Z" fill="url(#paint70_radial_7_1446)"/>
<path d="M350.812 30.7506L339.393 37.7799C335.743 35.2892 332.059 32.8561 328.341 30.4806C328.279 25.7369 328.203 20.9943 328.114 16.253C332.043 13.7527 335.969 11.2476 339.893 8.73779C343.822 11.0773 347.707 13.4768 351.547 15.9362C351.309 20.8792 351.064 25.8173 350.812 30.7506Z" fill="url(#paint71_radial_7_1446)"/>
<path d="M311.061 7.06775C307.367 9.55841 303.672 12.0455 299.973 14.5289C295.833 12.5134 291.655 10.5806 287.438 8.73059C286.747 4.43552 286.027 0.144049 285.278 -4.14382C289.077 -6.78325 292.873 -9.43586 296.665 -12.1017C301.121 -10.3861 305.539 -8.57807 309.916 -6.67768C310.32 -2.10668 310.701 2.47515 311.061 7.06775Z" fill="url(#paint72_radial_7_1446)"/>
<path d="M338.281 5.79716L326.455 13.3843C322.439 11.1408 318.391 8.97168 314.308 6.87693C313.991 2.25554 313.658 -2.36467 313.307 -6.98366C317.375 -9.69987 321.44 -12.4233 325.501 -15.1539C329.821 -13.1431 334.1 -11.0484 338.338 -8.86965C338.331 -3.98191 338.312 0.907026 338.281 5.79716Z" fill="url(#paint73_radial_7_1446)"/>
<path d="M352.076 85.5811C351.116 84.7581 350.156 83.9351 349.196 83.1121L339.084 89.3315C338.882 94.0105 338.668 98.6894 338.443 103.368C341.419 106.008 344.374 108.671 347.31 111.359L352.062 108.461L352.076 85.5811Z" fill="url(#paint74_radial_7_1446)"/>
<path d="M352.076 65.7458L351.698 65.969C351.386 70.7511 351.069 75.5321 350.747 80.3118C351.194 80.6718 351.633 81.0713 352.076 81.4492V65.7458Z" fill="url(#paint75_radial_7_1446)"/>
<path d="M352.076 33.8675L340.815 40.7672C340.683 45.5542 340.54 50.3435 340.387 55.1353C343.792 57.6763 347.144 60.2893 350.467 62.924L352.065 61.9738L352.076 33.8675Z" fill="url(#paint76_radial_7_1446)"/>
<path d="M352.076 -15.6577C348.637 -13.4765 345.205 -11.2882 341.78 -9.09268C341.722 -4.16895 341.654 0.749977 341.575 5.66411C345.11 7.75166 348.61 9.89318 352.076 12.0887V-15.6577Z" fill="url(#paint77_radial_7_1446)"/>
</g>
<path style="mix-blend-mode:screen" d="M224.938 63.1004C224.884 62.8564 224.743 62.6404 224.542 62.4922C224.704 61.8407 217.393 32.1328 187.739 13.2909C187.343 13.0389 187.451 13.0893 186.177 12.7906C170.649 3.12954 152.543 -1.56643 134.276 -0.670506C132.541 -1.09161 132.937 -1.03041 131.903 -0.969226C111.419 0.366084 92.0479 8.63708 76.1359 24.1281C75.9397 24.3183 75.7909 24.5519 75.7015 24.8101C75.612 25.0683 75.5845 25.3438 75.621 25.6146C74.4726 25.5894 73.8966 26.3344 73.5546 26.6763C62.1858 38.489 55.893 50.6903 51.7998 65.3751C51.2382 67.6894 50.691 69.7842 50.1366 73.1135C49.233 78.5123 49.3842 78.8542 49.755 80.3587C49.7212 80.4022 49.7012 80.4548 49.6975 80.5098C47.8779 100.155 52.6284 119.85 63.2046 136.506C63.2536 136.585 63.3309 136.642 63.4206 136.665C63.3877 136.905 63.3987 137.149 63.4531 137.385C63.6295 138.169 71.373 150.741 85.0242 160.826C93.9846 167.489 102.596 171.44 112.384 174.547C116.949 175.853 117.197 175.835 118.09 176.076C118.45 176.17 118.76 176.317 119.17 176.101C119.304 176.254 119.483 176.36 119.681 176.404C142.214 181.543 164.257 177.843 183.013 166.945C186.069 165.145 186.512 164.93 186.721 163.965C186.794 163.992 186.872 164.001 186.95 163.992C187.027 163.983 187.102 163.957 187.167 163.915C200.372 155.45 211.114 143.657 218.311 129.722C218.328 129.691 218.339 129.657 218.343 129.621C218.502 129.603 218.655 129.546 218.788 129.458C218.921 129.369 219.031 129.25 219.11 129.11C222.473 122.722 224.994 115.926 226.609 108.89C230.32 92.4773 229.265 77.7924 224.938 63.1004ZM151.682 127.829L111.909 117.319C102.707 87.9566 104.374 91.4047 100.299 77.1158C109.562 63.284 116.567 57.2949 129.099 45.907C129.938 46.1337 130.737 46.3317 131.457 46.5152C159.253 53.4761 158.421 53.7677 168.634 56.3447C174.463 69.4711 178.149 81.0174 181.335 96.1125C171.381 109.79 163.234 117.456 151.682 127.829ZM179.276 11.7756C187.97 23.5126 188.423 25.269 192.621 36.513C186.397 42.2717 178.394 48.1889 168.793 55.74C156.819 51.0358 142.041 46.6304 129.193 45.3023C123.605 35.5844 120.574 29.1958 115.898 19.082C121.658 10.8038 130.553 6.32998 139.942 2.80635C154.281 2.41763 166.251 5.2178 179.272 11.7756H179.276ZM71.0923 66.3109C81.1111 69.4494 90.1326 72.7391 99.6906 77.2705C101.876 90.5265 105.746 105.24 111.322 117.535C108.201 121.919 105.069 126.299 102.038 130.755C98.9094 135.355 96.1915 139.641 93.3727 144.302C75.6787 137.741 72.4063 135.686 66.3727 131.788C60.0691 121.433 56.8759 113.302 54.6763 93.4635C57.8587 86.1894 60.3498 80.0743 64.7346 73.8549C66.6874 71.2056 68.8098 68.6857 71.0887 66.3109H71.0923ZM156.412 158.811C156.376 155.392 155.573 145.782 153.64 135.754C153.161 133.256 152.639 130.769 152.107 128.282C163.45 120.364 174.887 108.846 181.821 96.4904L211.856 99.5389C214.243 113.774 215.035 118.975 213.703 130.028C205.217 143.039 199.151 150.184 186.627 158.631C177.098 161.791 162.043 159.153 157.06 158.912L156.412 158.811ZM221.882 56.5858C222.069 57.0645 223.919 61.8875 223.887 62.3122C223.721 62.3122 219.333 63.2372 218.512 63.392C212.727 52.0508 203.727 43.7942 193.244 36.3978C191.224 27.6517 188.258 21.1767 180.356 12.0599C184.316 13.1073 183.049 12.7798 186.98 13.8019C187.887 14.0683 211.471 29.4477 221.882 56.5858ZM76.8846 24.7904C87.1518 15.3172 97.8079 8.83861 111.2 4.2568C111.502 4.14883 113.284 3.58736 113.583 3.50097C119.173 1.80376 124.912 0.646719 130.723 0.0457345C133.005 -0.170219 132.605 -0.163041 133.091 -0.0658623C134.636 0.24367 138.556 1.01392 139.442 2.29164C130.139 4.89028 119.793 10.2099 115.347 18.7545C102.095 20.932 92.6023 23.9841 82.0399 31.1826C81.6259 30.7363 77.889 26.662 76.791 25.9673C76.7125 25.8875 76.652 25.7917 76.6137 25.6865C76.5754 25.5813 76.5601 25.4691 76.569 25.3574C76.5779 25.2458 76.6107 25.1374 76.6651 25.0396C76.7196 24.9417 76.7944 24.8567 76.8846 24.7904ZM64.7167 39.7127C68.3383 34.2095 71.427 30.6607 74.667 27.0614C74.8948 26.8141 75.2096 26.6647 75.5453 26.6446C75.8809 26.6244 76.2113 26.7352 76.467 26.9535C78.4434 28.5839 79.3471 29.4729 81.5827 31.6325C74.8003 41.7859 72.0282 48.9087 70.7214 65.825C65.1702 71.0187 59.9214 76.2844 54.2802 92.7004C52.941 90.181 52.0411 86.2218 51.4003 83.4504C50.2627 78.3071 50.2483 79.1313 50.7523 75.892C52.7664 62.9728 57.5283 50.6357 64.7167 39.7127ZM118.648 175.403C118.457 175.482 86.4571 169.645 64.7095 138.09C64.3207 137.529 63.9715 137.169 64.2487 136.406C64.7347 135.07 65.3286 133.588 66.1746 132.447C73.1802 138.86 85.0062 143.043 93.3006 144.943C99.6582 156.223 108.277 165.318 120.697 168.997C119.012 174.597 118.958 175.392 118.648 175.41V175.403ZM183.567 165.585C180.538 167.285 177.421 168.822 174.229 170.192C157.172 177.422 137.984 179.478 119.815 175.713C119.772 175.704 119.732 175.685 119.698 175.658C119.664 175.63 119.637 175.595 119.62 175.554C120.6 173.523 121.188 171.325 121.352 169.076C134.117 168.118 145.162 165.523 156.232 159.419C156.733 159.498 168.177 162.259 180.309 161.082C182.386 160.902 184.437 160.502 186.429 159.887C185.522 165.088 186.843 163.702 183.567 165.592V165.585ZM218.332 128.671C218.321 128.696 218.304 128.718 218.282 128.734C218.26 128.751 218.234 128.761 218.206 128.765C216.922 128.937 215.656 129.229 214.426 129.636C216.039 123.042 216.453 114.098 212.428 99.287C217.706 86.7545 218.836 78.8434 218.653 63.9967C224.413 62.9925 223.988 63.0105 224.103 63.1256C224.218 63.2408 228.855 77.8248 227.343 95.6841C226.985 100.027 226.315 104.338 225.338 108.584C223.74 115.514 221.39 122.25 218.332 128.671Z" fill="url(#paint78_radial_7_1446)"/>
</g>
</g>
<defs>
<radialGradient id="paint0_radial_7_1446" cx="0" cy="0" r="1" gradientUnits="userSpaceOnUse" gradientTransform="translate(334.004 -13.5522) scale(262.105 262.048)">
<stop stop-color="#515151"/>
<stop offset="0.4" stop-color="#2A2A2A"/>
<stop offset="0.79" stop-color="#0B0B0B"/>
<stop offset="1"/>
</radialGradient>
<radialGradient id="paint1_radial_7_1446" cx="0" cy="0" r="1" gradientUnits="userSpaceOnUse" gradientTransform="translate(334.004 -13.5558) scale(262.109 262.052)">
<stop stop-color="#515151"/>
<stop offset="0.4" stop-color="#2A2A2A"/>
<stop offset="0.79" stop-color="#0B0B0B"/>
<stop offset="1"/>
</radialGradient>
<radialGradient id="paint2_radial_7_1446" cx="0" cy="0" r="1" gradientUnits="userSpaceOnUse" gradientTransform="translate(334.004 -13.5556) scale(262.105 262.048)">
<stop stop-color="#515151"/>
<stop offset="0.4" stop-color="#2A2A2A"/>
<stop offset="0.79" stop-color="#0B0B0B"/>
<stop offset="1"/>
</radialGradient>
<radialGradient id="paint3_radial_7_1446" cx="0" cy="0" r="1" gradientUnits="userSpaceOnUse" gradientTransform="translate(334.004 -13.5524) scale(262.105 262.049)">
<stop stop-color="#515151"/>
<stop offset="0.4" stop-color="#2A2A2A"/>
<stop offset="0.79" stop-color="#0B0B0B"/>
<stop offset="1"/>
</radialGradient>
<radialGradient id="paint4_radial_7_1446" cx="0" cy="0" r="1" gradientUnits="userSpaceOnUse" gradientTransform="translate(334.004 -13.5521) scale(262.105 262.048)">
<stop stop-color="#515151"/>
<stop offset="0.4" stop-color="#2A2A2A"/>
<stop offset="0.79" stop-color="#0B0B0B"/>
<stop offset="1"/>
</radialGradient>
<radialGradient id="paint5_radial_7_1446" cx="0" cy="0" r="1" gradientUnits="userSpaceOnUse" gradientTransform="translate(334.004 -13.5558) scale(262.105 262.048)">
<stop stop-color="#515151"/>
<stop offset="0.4" stop-color="#2A2A2A"/>
<stop offset="0.79" stop-color="#0B0B0B"/>
<stop offset="1"/>
</radialGradient>
<radialGradient id="paint6_radial_7_1446" cx="0" cy="0" r="1" gradientUnits="userSpaceOnUse" gradientTransform="translate(334.004 -13.552) scale(262.106 262.048)">
<stop stop-color="#515151"/>
<stop offset="0.4" stop-color="#2A2A2A"/>
<stop offset="0.79" stop-color="#0B0B0B"/>
<stop offset="1"/>
</radialGradient>
<radialGradient id="paint7_radial_7_1446" cx="0" cy="0" r="1" gradientUnits="userSpaceOnUse" gradientTransform="translate(334.004 -13.5558) scale(262.105 262.048)">
<stop stop-color="#515151"/>
<stop offset="0.4" stop-color="#2A2A2A"/>
<stop offset="0.79" stop-color="#0B0B0B"/>
<stop offset="1"/>
</radialGradient>
<radialGradient id="paint8_radial_7_1446" cx="0" cy="0" r="1" gradientUnits="userSpaceOnUse" gradientTransform="translate(334.004 -13.5557) scale(262.109 262.052)">
<stop stop-color="#515151"/>
<stop offset="0.4" stop-color="#2A2A2A"/>
<stop offset="0.79" stop-color="#0B0B0B"/>
<stop offset="1"/>
</radialGradient>
<radialGradient id="paint9_radial_7_1446" cx="0" cy="0" r="1" gradientUnits="userSpaceOnUse" gradientTransform="translate(334.004 -13.5557) scale(262.105 262.048)">
<stop stop-color="#515151"/>
<stop offset="0.4" stop-color="#2A2A2A"/>
<stop offset="0.79" stop-color="#0B0B0B"/>
<stop offset="1"/>
</radialGradient>
<radialGradient id="paint10_radial_7_1446" cx="0" cy="0" r="1" gradientUnits="userSpaceOnUse" gradientTransform="translate(334.004 -13.5557) scale(262.105 262.048)">
<stop stop-color="#515151"/>
<stop offset="0.4" stop-color="#2A2A2A"/>
<stop offset="0.79" stop-color="#0B0B0B"/>
<stop offset="1"/>
</radialGradient>
<radialGradient id="paint11_radial_7_1446" cx="0" cy="0" r="1" gradientUnits="userSpaceOnUse" gradientTransform="translate(334.004 -13.5558) scale(262.109 262.052)">
<stop stop-color="#515151"/>
<stop offset="0.4" stop-color="#2A2A2A"/>
<stop offset="0.79" stop-color="#0B0B0B"/>
<stop offset="1"/>
</radialGradient>
<radialGradient id="paint12_radial_7_1446" cx="0" cy="0" r="1" gradientUnits="userSpaceOnUse" gradientTransform="translate(334.004 -13.5558) scale(262.109 262.052)">
<stop stop-color="#515151"/>
<stop offset="0.4" stop-color="#2A2A2A"/>
<stop offset="0.79" stop-color="#0B0B0B"/>
<stop offset="1"/>
</radialGradient>
<radialGradient id="paint13_radial_7_1446" cx="0" cy="0" r="1" gradientUnits="userSpaceOnUse" gradientTransform="translate(334.004 -13.5523) scale(262.105 262.049)">
<stop stop-color="#515151"/>
<stop offset="0.4" stop-color="#2A2A2A"/>
<stop offset="0.79" stop-color="#0B0B0B"/>
<stop offset="1"/>
</radialGradient>
<radialGradient id="paint14_radial_7_1446" cx="0" cy="0" r="1" gradientUnits="userSpaceOnUse" gradientTransform="translate(334.004 -13.5557) scale(262.105 262.048)">
<stop stop-color="#515151"/>
<stop offset="0.4" stop-color="#2A2A2A"/>
<stop offset="0.79" stop-color="#0B0B0B"/>
<stop offset="1"/>
</radialGradient>
<radialGradient id="paint15_radial_7_1446" cx="0" cy="0" r="1" gradientUnits="userSpaceOnUse" gradientTransform="translate(334.004 -13.5556) scale(262.105 262.048)">
<stop stop-color="#515151"/>
<stop offset="0.4" stop-color="#2A2A2A"/>
<stop offset="0.79" stop-color="#0B0B0B"/>
<stop offset="1"/>
</radialGradient>
<radialGradient id="paint16_radial_7_1446" cx="0" cy="0" r="1" gradientUnits="userSpaceOnUse" gradientTransform="translate(334.004 -13.5559) scale(262.105 262.049)">
<stop stop-color="#515151"/>
<stop offset="0.4" stop-color="#2A2A2A"/>
<stop offset="0.79" stop-color="#0B0B0B"/>
<stop offset="1"/>
</radialGradient>
<radialGradient id="paint17_radial_7_1446" cx="0" cy="0" r="1" gradientUnits="userSpaceOnUse" gradientTransform="translate(334.004 -13.5521) scale(262.105 262.048)">
<stop stop-color="#515151"/>
<stop offset="0.4" stop-color="#2A2A2A"/>
<stop offset="0.79" stop-color="#0B0B0B"/>
<stop offset="1"/>
</radialGradient>
<radialGradient id="paint18_radial_7_1446" cx="0" cy="0" r="1" gradientUnits="userSpaceOnUse" gradientTransform="translate(334.004 -13.5556) scale(262.105 262.048)">
<stop stop-color="#515151"/>
<stop offset="0.4" stop-color="#2A2A2A"/>
<stop offset="0.79" stop-color="#0B0B0B"/>
<stop offset="1"/>
</radialGradient>
<radialGradient id="paint19_radial_7_1446" cx="0" cy="0" r="1" gradientUnits="userSpaceOnUse" gradientTransform="translate(334.004 -13.5556) scale(262.109 262.052)">
<stop stop-color="#515151"/>
<stop offset="0.4" stop-color="#2A2A2A"/>
<stop offset="0.79" stop-color="#0B0B0B"/>
<stop offset="1"/>
</radialGradient>
<radialGradient id="paint20_radial_7_1446" cx="0" cy="0" r="1" gradientUnits="userSpaceOnUse" gradientTransform="translate(334.004 -13.5522) scale(262.105 262.048)">
<stop stop-color="#515151"/>
<stop offset="0.4" stop-color="#2A2A2A"/>
<stop offset="0.79" stop-color="#0B0B0B"/>
<stop offset="1"/>
</radialGradient>
<radialGradient id="paint21_radial_7_1446" cx="0" cy="0" r="1" gradientUnits="userSpaceOnUse" gradientTransform="translate(334.004 -13.5557) scale(262.105 262.048)">
<stop stop-color="#515151"/>
<stop offset="0.4" stop-color="#2A2A2A"/>
<stop offset="0.79" stop-color="#0B0B0B"/>
<stop offset="1"/>
</radialGradient>
<radialGradient id="paint22_radial_7_1446" cx="0" cy="0" r="1" gradientUnits="userSpaceOnUse" gradientTransform="translate(334.004 -13.5522) scale(262.105 262.048)">
<stop stop-color="#515151"/>
<stop offset="0.4" stop-color="#2A2A2A"/>
<stop offset="0.79" stop-color="#0B0B0B"/>
<stop offset="1"/>
</radialGradient>
<radialGradient id="paint23_radial_7_1446" cx="0" cy="0" r="1" gradientUnits="userSpaceOnUse" gradientTransform="translate(334.004 -13.5557) scale(262.108 262.052)">
<stop stop-color="#515151"/>
<stop offset="0.4" stop-color="#2A2A2A"/>
<stop offset="0.79" stop-color="#0B0B0B"/>
<stop offset="1"/>
</radialGradient>
<radialGradient id="paint24_radial_7_1446" cx="0" cy="0" r="1" gradientUnits="userSpaceOnUse" gradientTransform="translate(334.004 -13.5522) scale(262.105 262.048)">
<stop stop-color="#515151"/>
<stop offset="0.4" stop-color="#2A2A2A"/>
<stop offset="0.79" stop-color="#0B0B0B"/>
<stop offset="1"/>
</radialGradient>
<radialGradient id="paint25_radial_7_1446" cx="0" cy="0" r="1" gradientUnits="userSpaceOnUse" gradientTransform="translate(334.004 -13.5558) scale(262.105 262.048)">
<stop stop-color="#515151"/>
<stop offset="0.4" stop-color="#2A2A2A"/>
<stop offset="0.79" stop-color="#0B0B0B"/>
<stop offset="1"/>
</radialGradient>
<radialGradient id="paint26_radial_7_1446" cx="0" cy="0" r="1" gradientUnits="userSpaceOnUse" gradientTransform="translate(334.004 -13.5522) scale(262.105 262.049)">
<stop stop-color="#515151"/>
<stop offset="0.4" stop-color="#2A2A2A"/>
<stop offset="0.79" stop-color="#0B0B0B"/>
<stop offset="1"/>
</radialGradient>
<radialGradient id="paint27_radial_7_1446" cx="0" cy="0" r="1" gradientUnits="userSpaceOnUse" gradientTransform="translate(334.004 -13.5521) scale(262.105 262.048)">
<stop stop-color="#515151"/>
<stop offset="0.4" stop-color="#2A2A2A"/>
<stop offset="0.79" stop-color="#0B0B0B"/>
<stop offset="1"/>
</radialGradient>
<radialGradient id="paint28_radial_7_1446" cx="0" cy="0" r="1" gradientUnits="userSpaceOnUse" gradientTransform="translate(334.004 -13.5556) scale(262.105 262.048)">
<stop stop-color="#515151"/>
<stop offset="0.4" stop-color="#2A2A2A"/>
<stop offset="0.79" stop-color="#0B0B0B"/>
<stop offset="1"/>
</radialGradient>
<radialGradient id="paint29_radial_7_1446" cx="0" cy="0" r="1" gradientUnits="userSpaceOnUse" gradientTransform="translate(334.004 -13.5556) scale(262.105 262.048)">
<stop stop-color="#515151"/>
<stop offset="0.4" stop-color="#2A2A2A"/>
<stop offset="0.79" stop-color="#0B0B0B"/>
<stop offset="1"/>
</radialGradient>
<radialGradient id="paint30_radial_7_1446" cx="0" cy="0" r="1" gradientUnits="userSpaceOnUse" gradientTransform="translate(334.004 -13.5558) scale(262.105 262.049)">
<stop stop-color="#515151"/>
<stop offset="0.4" stop-color="#2A2A2A"/>
<stop offset="0.79" stop-color="#0B0B0B"/>
<stop offset="1"/>
</radialGradient>
<radialGradient id="paint31_radial_7_1446" cx="0" cy="0" r="1" gradientUnits="userSpaceOnUse" gradientTransform="translate(334.004 -13.5557) scale(262.105 262.048)">
<stop stop-color="#515151"/>
<stop offset="0.4" stop-color="#2A2A2A"/>
<stop offset="0.79" stop-color="#0B0B0B"/>
<stop offset="1"/>
</radialGradient>
<radialGradient id="paint32_radial_7_1446" cx="0" cy="0" r="1" gradientUnits="userSpaceOnUse" gradientTransform="translate(334.004 -13.5558) scale(262.105 262.049)">
<stop stop-color="#515151"/>
<stop offset="0.4" stop-color="#2A2A2A"/>
<stop offset="0.79" stop-color="#0B0B0B"/>
<stop offset="1"/>
</radialGradient>
<radialGradient id="paint33_radial_7_1446" cx="0" cy="0" r="1" gradientUnits="userSpaceOnUse" gradientTransform="translate(334.004 -13.5556) scale(262.105 262.048)">
<stop stop-color="#515151"/>
<stop offset="0.4" stop-color="#2A2A2A"/>
<stop offset="0.79" stop-color="#0B0B0B"/>
<stop offset="1"/>
</radialGradient>
<radialGradient id="paint34_radial_7_1446" cx="0" cy="0" r="1" gradientUnits="userSpaceOnUse" gradientTransform="translate(334.004 -13.5557) scale(262.105 262.048)">
<stop stop-color="#515151"/>
<stop offset="0.4" stop-color="#2A2A2A"/>
<stop offset="0.79" stop-color="#0B0B0B"/>
<stop offset="1"/>
</radialGradient>
<radialGradient id="paint35_radial_7_1446" cx="0" cy="0" r="1" gradientUnits="userSpaceOnUse" gradientTransform="translate(334.004 -13.5557) scale(262.109 262.052)">
<stop stop-color="#515151"/>
<stop offset="0.4" stop-color="#2A2A2A"/>
<stop offset="0.79" stop-color="#0B0B0B"/>
<stop offset="1"/>
</radialGradient>
<radialGradient id="paint36_radial_7_1446" cx="0" cy="0" r="1" gradientUnits="userSpaceOnUse" gradientTransform="translate(334.004 -13.5557) scale(262.105 262.048)">
<stop stop-color="#515151"/>
<stop offset="0.4" stop-color="#2A2A2A"/>
<stop offset="0.79" stop-color="#0B0B0B"/>
<stop offset="1"/>
</radialGradient>
<radialGradient id="paint37_radial_7_1446" cx="0" cy="0" r="1" gradientUnits="userSpaceOnUse" gradientTransform="translate(334.004 -13.5557) scale(262.109 262.052)">
<stop stop-color="#515151"/>
<stop offset="0.4" stop-color="#2A2A2A"/>
<stop offset="0.79" stop-color="#0B0B0B"/>
<stop offset="1"/>
</radialGradient>
<radialGradient id="paint38_radial_7_1446" cx="0" cy="0" r="1" gradientUnits="userSpaceOnUse" gradientTransform="translate(334.004 -13.5557) scale(262.105 262.048)">
<stop stop-color="#515151"/>
<stop offset="0.4" stop-color="#2A2A2A"/>
<stop offset="0.79" stop-color="#0B0B0B"/>
<stop offset="1"/>
</radialGradient>
<radialGradient id="paint39_radial_7_1446" cx="0" cy="0" r="1" gradientUnits="userSpaceOnUse" gradientTransform="translate(334.004 -13.5557) scale(262.109 262.052)">
<stop stop-color="#515151"/>
<stop offset="0.4" stop-color="#2A2A2A"/>
<stop offset="0.79" stop-color="#0B0B0B"/>
<stop offset="1"/>
</radialGradient>
<radialGradient id="paint40_radial_7_1446" cx="0" cy="0" r="1" gradientUnits="userSpaceOnUse" gradientTransform="translate(334.004 -13.5558) scale(262.109 262.052)">
<stop stop-color="#515151"/>
<stop offset="0.4" stop-color="#2A2A2A"/>
<stop offset="0.79" stop-color="#0B0B0B"/>
<stop offset="1"/>
</radialGradient>
<radialGradient id="paint41_radial_7_1446" cx="0" cy="0" r="1" gradientUnits="userSpaceOnUse" gradientTransform="translate(334.004 -13.5557) scale(262.109 262.052)">
<stop stop-color="#515151"/>
<stop offset="0.4" stop-color="#2A2A2A"/>
<stop offset="0.79" stop-color="#0B0B0B"/>
<stop offset="1"/>
</radialGradient>
<radialGradient id="paint42_radial_7_1446" cx="0" cy="0" r="1" gradientUnits="userSpaceOnUse" gradientTransform="translate(334.004 -13.5521) scale(262.105 262.048)">
<stop stop-color="#515151"/>
<stop offset="0.4" stop-color="#2A2A2A"/>
<stop offset="0.79" stop-color="#0B0B0B"/>
<stop offset="1"/>
</radialGradient>
<radialGradient id="paint43_radial_7_1446" cx="0" cy="0" r="1" gradientUnits="userSpaceOnUse" gradientTransform="translate(334.004 -13.5557) scale(262.105 262.048)">
<stop stop-color="#515151"/>
<stop offset="0.4" stop-color="#2A2A2A"/>
<stop offset="0.79" stop-color="#0B0B0B"/>
<stop offset="1"/>
</radialGradient>
<radialGradient id="paint44_radial_7_1446" cx="0" cy="0" r="1" gradientUnits="userSpaceOnUse" gradientTransform="translate(334.004 -13.5557) scale(262.105 262.048)">
<stop stop-color="#515151"/>
<stop offset="0.4" stop-color="#2A2A2A"/>
<stop offset="0.79" stop-color="#0B0B0B"/>
<stop offset="1"/>
</radialGradient>
<radialGradient id="paint45_radial_7_1446" cx="0" cy="0" r="1" gradientUnits="userSpaceOnUse" gradientTransform="translate(334.004 -13.5558) scale(262.105 262.048)">
<stop stop-color="#515151"/>
<stop offset="0.4" stop-color="#2A2A2A"/>
<stop offset="0.79" stop-color="#0B0B0B"/>
<stop offset="1"/>
</radialGradient>
<radialGradient id="paint46_radial_7_1446" cx="0" cy="0" r="1" gradientUnits="userSpaceOnUse" gradientTransform="translate(334.004 -13.5558) scale(262.105 262.048)">
<stop stop-color="#515151"/>
<stop offset="0.4" stop-color="#2A2A2A"/>
<stop offset="0.79" stop-color="#0B0B0B"/>
<stop offset="1"/>
</radialGradient>
<radialGradient id="paint47_radial_7_1446" cx="0" cy="0" r="1" gradientUnits="userSpaceOnUse" gradientTransform="translate(334.004 -13.5558) scale(262.105 262.048)">
<stop stop-color="#515151"/>
<stop offset="0.4" stop-color="#2A2A2A"/>
<stop offset="0.79" stop-color="#0B0B0B"/>
<stop offset="1"/>
</radialGradient>
<radialGradient id="paint48_radial_7_1446" cx="0" cy="0" r="1" gradientUnits="userSpaceOnUse" gradientTransform="translate(334.004 -13.5521) scale(262.105 262.048)">
<stop stop-color="#515151"/>
<stop offset="0.4" stop-color="#2A2A2A"/>
<stop offset="0.79" stop-color="#0B0B0B"/>
<stop offset="1"/>
</radialGradient>
<radialGradient id="paint49_radial_7_1446" cx="0" cy="0" r="1" gradientUnits="userSpaceOnUse" gradientTransform="translate(334.004 -13.5557) scale(262.105 262.048)">
<stop stop-color="#515151"/>
<stop offset="0.4" stop-color="#2A2A2A"/>
<stop offset="0.79" stop-color="#0B0B0B"/>
<stop offset="1"/>
</radialGradient>
<radialGradient id="paint50_radial_7_1446" cx="0" cy="0" r="1" gradientUnits="userSpaceOnUse" gradientTransform="translate(334.004 -13.5521) scale(262.105 262.048)">
<stop stop-color="#515151"/>
<stop offset="0.4" stop-color="#2A2A2A"/>
<stop offset="0.79" stop-color="#0B0B0B"/>
<stop offset="1"/>
</radialGradient>
<radialGradient id="paint51_radial_7_1446" cx="0" cy="0" r="1" gradientUnits="userSpaceOnUse" gradientTransform="translate(334.004 -13.5558) scale(262.105 262.049)">
<stop stop-color="#515151"/>
<stop offset="0.4" stop-color="#2A2A2A"/>
<stop offset="0.79" stop-color="#0B0B0B"/>
<stop offset="1"/>
</radialGradient>
<radialGradient id="paint52_radial_7_1446" cx="0" cy="0" r="1" gradientUnits="userSpaceOnUse" gradientTransform="translate(334.004 -13.5521) scale(262.105 262.048)">
<stop stop-color="#515151"/>
<stop offset="0.4" stop-color="#2A2A2A"/>
<stop offset="0.79" stop-color="#0B0B0B"/>
<stop offset="1"/>
</radialGradient>
<radialGradient id="paint53_radial_7_1446" cx="0" cy="0" r="1" gradientUnits="userSpaceOnUse" gradientTransform="translate(334.004 -13.5558) scale(262.105 262.048)">
<stop stop-color="#515151"/>
<stop offset="0.4" stop-color="#2A2A2A"/>
<stop offset="0.79" stop-color="#0B0B0B"/>
<stop offset="1"/>
</radialGradient>
<radialGradient id="paint54_radial_7_1446" cx="0" cy="0" r="1" gradientUnits="userSpaceOnUse" gradientTransform="translate(334.004 -13.5557) scale(262.105 262.048)">
<stop stop-color="#515151"/>
<stop offset="0.4" stop-color="#2A2A2A"/>
<stop offset="0.79" stop-color="#0B0B0B"/>
<stop offset="1"/>
</radialGradient>
<radialGradient id="paint55_radial_7_1446" cx="0" cy="0" r="1" gradientUnits="userSpaceOnUse" gradientTransform="translate(334.004 -13.5558) scale(262.105 262.048)">
<stop stop-color="#515151"/>
<stop offset="0.4" stop-color="#2A2A2A"/>
<stop offset="0.79" stop-color="#0B0B0B"/>
<stop offset="1"/>
</radialGradient>
<radialGradient id="paint56_radial_7_1446" cx="0" cy="0" r="1" gradientUnits="userSpaceOnUse" gradientTransform="translate(334.004 -13.5558) scale(262.105 262.048)">
<stop stop-color="#515151"/>
<stop offset="0.4" stop-color="#2A2A2A"/>
<stop offset="0.79" stop-color="#0B0B0B"/>
<stop offset="1"/>
</radialGradient>
<radialGradient id="paint57_radial_7_1446" cx="0" cy="0" r="1" gradientUnits="userSpaceOnUse" gradientTransform="translate(334.004 -13.5558) scale(262.105 262.048)">
<stop stop-color="#515151"/>
<stop offset="0.4" stop-color="#2A2A2A"/>
<stop offset="0.79" stop-color="#0B0B0B"/>
<stop offset="1"/>
</radialGradient>
<radialGradient id="paint58_radial_7_1446" cx="0" cy="0" r="1" gradientUnits="userSpaceOnUse" gradientTransform="translate(334.004 -13.5558) scale(262.106 262.048)">
<stop stop-color="#515151"/>
<stop offset="0.4" stop-color="#2A2A2A"/>
<stop offset="0.79" stop-color="#0B0B0B"/>
<stop offset="1"/>
</radialGradient>
<radialGradient id="paint59_radial_7_1446" cx="0" cy="0" r="1" gradientUnits="userSpaceOnUse" gradientTransform="translate(334.004 -13.5556) scale(262.106 262.048)">
<stop stop-color="#515151"/>
<stop offset="0.4" stop-color="#2A2A2A"/>
<stop offset="0.79" stop-color="#0B0B0B"/>
<stop offset="1"/>
</radialGradient>
<radialGradient id="paint60_radial_7_1446" cx="0" cy="0" r="1" gradientUnits="userSpaceOnUse" gradientTransform="translate(334.004 -13.5556) scale(262.105 262.048)">
<stop stop-color="#515151"/>
<stop offset="0.4" stop-color="#2A2A2A"/>
<stop offset="0.79" stop-color="#0B0B0B"/>
<stop offset="1"/>
</radialGradient>
<radialGradient id="paint61_radial_7_1446" cx="0" cy="0" r="1" gradientUnits="userSpaceOnUse" gradientTransform="translate(334.004 -13.5557) scale(262.105 262.048)">
<stop stop-color="#515151"/>
<stop offset="0.4" stop-color="#2A2A2A"/>
<stop offset="0.79" stop-color="#0B0B0B"/>
<stop offset="1"/>
</radialGradient>
<radialGradient id="paint62_radial_7_1446" cx="0" cy="0" r="1" gradientUnits="userSpaceOnUse" gradientTransform="translate(334.004 -13.5521) scale(262.105 262.048)">
<stop stop-color="#515151"/>
<stop offset="0.4" stop-color="#2A2A2A"/>
<stop offset="0.79" stop-color="#0B0B0B"/>
<stop offset="1"/>
</radialGradient>
<radialGradient id="paint63_radial_7_1446" cx="0" cy="0" r="1" gradientUnits="userSpaceOnUse" gradientTransform="translate(334.004 -13.5557) scale(262.105 262.048)">
<stop stop-color="#515151"/>
<stop offset="0.4" stop-color="#2A2A2A"/>
<stop offset="0.79" stop-color="#0B0B0B"/>
<stop offset="1"/>
</radialGradient>
<radialGradient id="paint64_radial_7_1446" cx="0" cy="0" r="1" gradientUnits="userSpaceOnUse" gradientTransform="translate(334.004 -13.5558) scale(262.105 262.048)">
<stop stop-color="#515151"/>
<stop offset="0.4" stop-color="#2A2A2A"/>
<stop offset="0.79" stop-color="#0B0B0B"/>
<stop offset="1"/>
</radialGradient>
<radialGradient id="paint65_radial_7_1446" cx="0" cy="0" r="1" gradientUnits="userSpaceOnUse" gradientTransform="translate(334.004 -13.552) scale(262.105 262.048)">
<stop stop-color="#515151"/>
<stop offset="0.4" stop-color="#2A2A2A"/>
<stop offset="0.79" stop-color="#0B0B0B"/>
<stop offset="1"/>
</radialGradient>
<radialGradient id="paint66_radial_7_1446" cx="0" cy="0" r="1" gradientUnits="userSpaceOnUse" gradientTransform="translate(334.004 -13.5522) scale(262.106 262.048)">
<stop stop-color="#515151"/>
<stop offset="0.4" stop-color="#2A2A2A"/>
<stop offset="0.79" stop-color="#0B0B0B"/>
<stop offset="1"/>
</radialGradient>
<radialGradient id="paint67_radial_7_1446" cx="0" cy="0" r="1" gradientUnits="userSpaceOnUse" gradientTransform="translate(334.004 -13.5556) scale(262.105 262.048)">
<stop stop-color="#515151"/>
<stop offset="0.4" stop-color="#2A2A2A"/>
<stop offset="0.79" stop-color="#0B0B0B"/>
<stop offset="1"/>
</radialGradient>
<radialGradient id="paint68_radial_7_1446" cx="0" cy="0" r="1" gradientUnits="userSpaceOnUse" gradientTransform="translate(334.004 -13.5521) scale(262.105 262.048)">
<stop stop-color="#515151"/>
<stop offset="0.4" stop-color="#2A2A2A"/>
<stop offset="0.79" stop-color="#0B0B0B"/>
<stop offset="1"/>
</radialGradient>
<radialGradient id="paint69_radial_7_1446" cx="0" cy="0" r="1" gradientUnits="userSpaceOnUse" gradientTransform="translate(334.004 -13.5557) scale(262.109 262.052)">
<stop stop-color="#515151"/>
<stop offset="0.4" stop-color="#2A2A2A"/>
<stop offset="0.79" stop-color="#0B0B0B"/>
<stop offset="1"/>
</radialGradient>
<radialGradient id="paint70_radial_7_1446" cx="0" cy="0" r="1" gradientUnits="userSpaceOnUse" gradientTransform="translate(334.004 -13.5522) scale(262.105 262.049)">
<stop stop-color="#515151"/>
<stop offset="0.4" stop-color="#2A2A2A"/>
<stop offset="0.79" stop-color="#0B0B0B"/>
<stop offset="1"/>
</radialGradient>
<radialGradient id="paint71_radial_7_1446" cx="0" cy="0" r="1" gradientUnits="userSpaceOnUse" gradientTransform="translate(334.004 -13.5521) scale(262.106 262.048)">
<stop stop-color="#515151"/>
<stop offset="0.4" stop-color="#2A2A2A"/>
<stop offset="0.79" stop-color="#0B0B0B"/>
<stop offset="1"/>
</radialGradient>
<radialGradient id="paint72_radial_7_1446" cx="0" cy="0" r="1" gradientUnits="userSpaceOnUse" gradientTransform="translate(334.004 -13.5558) scale(262.105 262.048)">
<stop stop-color="#515151"/>
<stop offset="0.4" stop-color="#2A2A2A"/>
<stop offset="0.79" stop-color="#0B0B0B"/>
<stop offset="1"/>
</radialGradient>
<radialGradient id="paint73_radial_7_1446" cx="0" cy="0" r="1" gradientUnits="userSpaceOnUse" gradientTransform="translate(334.004 -13.5558) scale(262.105 262.048)">
<stop stop-color="#515151"/>
<stop offset="0.4" stop-color="#2A2A2A"/>
<stop offset="0.79" stop-color="#0B0B0B"/>
<stop offset="1"/>
</radialGradient>
<radialGradient id="paint74_radial_7_1446" cx="0" cy="0" r="1" gradientUnits="userSpaceOnUse" gradientTransform="translate(334.004 -13.5521) scale(262.105 262.048)">
<stop stop-color="#515151"/>
<stop offset="0.4" stop-color="#2A2A2A"/>
<stop offset="0.79" stop-color="#0B0B0B"/>
<stop offset="1"/>
</radialGradient>
<radialGradient id="paint75_radial_7_1446" cx="0" cy="0" r="1" gradientUnits="userSpaceOnUse" gradientTransform="translate(334.004 -13.5522) scale(262.11 262.048)">
<stop stop-color="#515151"/>
<stop offset="0.4" stop-color="#2A2A2A"/>
<stop offset="0.79" stop-color="#0B0B0B"/>
<stop offset="1"/>
</radialGradient>
<radialGradient id="paint76_radial_7_1446" cx="0" cy="0" r="1" gradientUnits="userSpaceOnUse" gradientTransform="translate(334.004 -13.5558) scale(262.105 262.048)">
<stop stop-color="#515151"/>
<stop offset="0.4" stop-color="#2A2A2A"/>
<stop offset="0.79" stop-color="#0B0B0B"/>
<stop offset="1"/>
</radialGradient>
<radialGradient id="paint77_radial_7_1446" cx="0" cy="0" r="1" gradientUnits="userSpaceOnUse" gradientTransform="translate(334.004 -13.5557) scale(262.106 262.048)">
<stop stop-color="#515151"/>
<stop offset="0.4" stop-color="#2A2A2A"/>
<stop offset="0.79" stop-color="#0B0B0B"/>
<stop offset="1"/>
</radialGradient>
<radialGradient id="paint78_radial_7_1446" cx="0" cy="0" r="1" gradientUnits="userSpaceOnUse" gradientTransform="translate(114.742 117.11) scale(141.79 141.759)">
<stop stop-color="#808080"/>
<stop offset="0.15" stop-color="#777777"/>
<stop offset="0.39" stop-color="#606060"/>
<stop offset="0.7" stop-color="#3A3A3A"/>
<stop offset="1" stop-color="#0D0D0D"/>
</radialGradient>
<clipPath id="clip0_7_1446">
<rect width="352" height="147" fill="white"/>
</clipPath>
</defs>
</svg>
